<svg width="893" height="1162" viewBox="0 0 893 1162" fill="none" xmlns="http://www.w3.org/2000/svg">
<path d="M0.266667 548.667L0.666667 1097.2L4.66667 1090C20.5333 1061.87 49.6 1036.4 88.8 1016.4C145.467 987.6 230.4 965.334 328.133 953.467C351.733 950.534 401.6 946.667 414.8 946.667H422.8V895.467V844.4L414.4 843.6C389.733 841.334 362.933 833.467 336.267 820.534C310.933 808.267 296.4 797.467 280.8 778.667C264.933 759.6 254.133 741.067 246.8 720.667C242.933 709.467 234.533 677.2 235.333 676.4C236 675.734 265.867 681.333 278.8 684.667C296.933 689.2 309.333 693.867 327.067 702.934C371.867 725.6 401.467 760.134 418.133 809.067L422.4 821.467L422.533 758.267L422.667 694.934L411.067 693.333C375.467 688.667 330.267 671.467 306.667 653.467C286.933 638.534 263.333 609.2 252.933 586.534C246 571.6 233.467 528.933 235.333 527.067C236.4 526 265.467 531.6 282.533 536.133C308.933 543.067 333.6 554.4 353.733 568.933C366.933 578.534 385.467 597.6 394.667 611.067C403.2 623.733 413.467 644.8 418.533 659.734L422.267 670.8L422.533 608.134L422.667 545.467L416.4 544.667C400.667 542.4 376.8 537.067 364 532.667C344.933 526.133 317.333 512.4 306.133 503.867C281.867 485.333 260.667 457.2 248.933 427.867C244.267 416.133 234 379.067 235.2 377.867C236 376.933 271.467 383.734 285.333 387.467C328.667 399.2 365.733 423.067 390 454.933C401.467 469.867 411.333 489.067 418.667 510.8L422.133 520.8L422.4 458.534L422.667 396.133L415.067 395.333C377.467 390.933 330.933 373.734 305.867 354.8C282.4 337.2 259.333 306 247.867 276.667C244 266.534 234.133 229.6 235.067 228.667C235.733 228 267.2 233.867 280.8 237.333C304 243.2 329.467 254.534 351.2 268.8C364.533 277.6 386.133 299.6 395.067 313.333C404.933 328.4 412.667 344.133 417.6 359.067C419.867 365.867 421.867 371.467 422.133 371.734C422.267 371.867 422.533 356.534 422.533 337.6L422.667 303.067L414.667 290.534C392.267 255.867 381.2 224.534 379.333 190.667C376.933 148.4 394.667 97.2001 426.667 53.6001L435.867 41.0668L445.067 54.2668C468.8 87.7335 483.067 119.6 489.6 153.467C494.533 179.333 492.133 210.534 483.333 237.333C478.933 250.4 467.333 274.667 459.6 286.534C448.8 303.2 449.467 300.133 449.6 338.267L449.733 372.667L453.467 361.867C467.6 321.067 491.2 289.467 524.667 266.667C536.4 258.667 561.733 246.8 578.8 241.333C592.667 236.933 635.733 227.6 637.2 228.8C638.133 229.467 629.2 261.867 624.8 274.267C612.933 307.6 588 340.267 560.533 358.8C535.6 375.734 496 390 461.2 394.667L449.467 396.267V459.2L449.6 522L454 509.333C475.467 446.667 523.067 404.133 591.2 386.534C601.6 383.867 636.4 377.467 637.2 378C637.867 378.534 630.8 405.6 626.667 418.267C616.8 448.267 595.733 479.734 572.8 498.4C559.6 509.333 556.933 511.067 540.667 519.2C517.6 530.667 490.267 539.467 467.467 542.667C461.6 543.467 455.2 544.4 453.2 544.8L449.467 545.6L449.6 608.4V671.333L454.667 657.333C481.2 583.2 539.067 540.8 631.867 527.467L637.733 526.534L636.8 530.933C634 543.734 626.133 569.867 622.267 579.467C614.533 598.4 602 617.733 585.467 636.267C559.067 665.734 510.667 687.2 455.867 694L449.467 694.8L449.6 757.734C449.6 792.8 450.133 819.467 450.8 818C451.333 816.534 453.867 809.867 456.133 803.334C466.533 774.267 485.6 746.4 508.133 727.467C531.467 707.734 561.2 693.067 596.133 683.867C604.267 681.734 636.667 676.134 637.333 676.667C638.133 677.6 627.733 715.333 624 725.067C607.467 766.934 577.067 800.934 539.467 819.6C516.667 831.067 486.933 840.134 463.2 842.934L449.467 844.534V895.067V945.467L575.2 944.934C711.6 944.4 711.067 944.4 746.667 936.534C819.467 920.267 857.467 882.534 869.733 814.667C870.8 808.267 871.333 701.734 871.733 402.933L872.267 0.00012207H436.133H0L0.266667 548.667Z" fill="#3AAA35"/>
<path d="M838 967.6C840.667 970.4 844.533 976 846.533 980C849.733 986.667 850.133 988.8 850.133 1002.13C850.133 1016.4 850 1017.07 845.2 1026.93C834.4 1048.67 813.6 1062.4 780.8 1069.6C770 1071.87 713.2 1071.87 696.133 1069.6C669.2 1065.87 626.533 1058.53 605.467 1054.13C444.533 1020.13 336 1011.73 227.067 1024.8C156.667 1033.2 96.2666 1052.27 56.1333 1078.8C39.3333 1089.87 20.1333 1109.33 12 1123.33C5.06665 1135.2 1.86665 1143.6 3.59999 1145.33C4.26665 1146 11.7333 1142.27 20.1333 1137.07C59.6 1112.93 101.6 1099.07 147.467 1094.67C230.8 1086.93 309.333 1095.6 492.8 1133.07C609.467 1156.93 645.867 1161.73 705.467 1161.73C741.333 1161.87 744.533 1161.6 763.467 1158.13C786.667 1153.73 802.8 1148.27 824.133 1137.07C854.4 1121.33 870.267 1106.4 882.133 1082.8C890 1066.8 892.667 1055.73 892.533 1039.33C892.133 1006.53 875.733 980.8 846.267 967.2C840.8 964.667 835.6 962.667 834.8 962.667C833.867 962.667 835.333 964.933 838 967.6Z" fill="#3AAA35"/>
</svg>
