<svg width="1523" height="747" viewBox="0 0 1523 747" fill="none" xmlns="http://www.w3.org/2000/svg">
<path d="M0.4 350.8L0.666667 701.6L6 693.6C27.7333 661.2 73.8667 638.267 151.333 621.333C179.467 615.2 215.6 610.4 244.667 608.667C252.4 608.267 261.2 607.6 264.267 607.2L269.867 606.533L270.267 574.667L270.667 542.8L261.333 541.333C240.133 537.867 216 529.067 201.067 519.067C185.333 508.667 168.133 487.467 160.267 468.8C156.667 460.267 149.467 434.8 150.4 433.867C151.2 433.067 182.8 440 190.667 442.667C204 447.2 219.467 455.6 229.333 463.333C248 478.267 260 495.733 269.867 523.067C270.267 524.4 270.533 507.6 270.4 485.733L270 446L260.4 444.533C245.867 442.267 235.067 439.067 221.733 433.333C204 425.733 196.133 420.533 184.933 408.667C172.933 396.133 165.733 385.733 160.4 373.2C156.533 363.867 149.333 338.8 150.4 337.867C151.067 337.067 171.067 340.933 183.333 344.267C188.8 345.733 199.333 349.733 206.667 353.333C238.4 368.667 255.6 388.4 269.867 426C271.067 429.067 271.2 429.2 270.667 426.667C270.4 424.8 270 406.8 270 386.533V349.733L259.2 348.267C245.733 346.267 223.6 338.933 209.867 331.867C187.6 320.267 168 297.733 158.8 273.2C155.2 263.733 149.6 242.667 150.4 241.867C151.333 240.933 182.933 248 192.533 251.333C227.333 263.2 253.067 287.2 266.133 320.267L269.867 330L270 292.933C270 272.667 269.867 255.6 269.867 254.933C269.733 254.4 264.667 253.333 258.533 252.4C237.6 249.333 209.333 237.867 194.133 226.267C181.067 216.267 165.467 194.933 159.067 178.4C156.667 172.4 150.133 149.067 150 146.533C150 145.467 167.2 148.533 181.333 152.133C195.2 155.733 218.933 167.2 230.4 176C246 187.867 259.333 206.8 267.733 229.067L270.667 236.933L270.267 214.8L269.733 192.667L264.8 184.667C247.467 157.333 239.867 129.067 243.333 105.467C245.2 92.4001 250.4 75.2001 256.133 62.8C261.2 51.7334 277.467 26.6667 279.467 26.6667C281.467 26.6667 297.6 52.1334 303.467 64.6667C312 82.6667 315.733 99.0667 315.733 117.333C315.6 140.667 310.4 157.067 294.533 184.133L288.667 194.267V215.467L288.8 236.667L291.867 228.667C301.333 204 315.733 184.933 334.4 172.133C350.133 161.333 373.067 152.4 394.133 148.667C411.2 145.6 410.133 144.8 406.4 158.933C399.333 185.333 388.267 204.667 370.4 221.333C355.867 234.933 332.4 246 307.067 251.2C301.467 252.4 294.933 253.333 292.667 253.333H288.667V292.933L288.8 332.667L291.2 326C304.533 288.933 331.067 263.2 368.667 250.8C379.6 247.2 400 242.667 405.467 242.667H409.6L406 255.6C400.8 274 396.533 283.867 388.133 296.533C375.333 315.733 358.133 329.467 335.333 338.533C323.067 343.333 307.333 347.6 296.667 348.8L288.667 349.733V389.2L288.8 428.667L291.2 422C300.133 397.2 315.733 376.4 335.733 362.8C345.2 356.4 365.2 347.2 376.667 344.133C386 341.6 408.933 337.2 409.6 337.867C410.267 338.4 400.933 369.2 398.4 374.933C388.933 395.867 368.533 418.267 350.4 427.733C344.4 430.8 335.333 434.933 330.4 436.8C320.4 440.533 299.733 445.333 293.067 445.333H288.667V484.933L288.8 524.667L292 516.267C306.133 479.733 330.667 456.267 369.2 442.8C378.533 439.467 408.533 432.8 409.6 433.733C410.4 434.533 401.333 464.133 398.133 471.2C389.6 490 372.4 510.533 356.667 520.4C341.2 530.133 319.467 537.867 298.267 541.333L288.667 542.933V574.8V606.667H363.733C445.333 606.667 460.533 605.733 485.067 599.333C524.133 589.2 545.6 569.2 555.733 533.467L558.667 523.333L559.067 261.6L559.333 6.10352e-05H279.733H0L0.4 350.8Z" fill="#3AAA35"/>
<path d="M1496.67 284.134C1494.13 285.467 1486.53 287.467 1479.73 288.534C1466.4 290.8 1454.67 294.8 1447.33 299.334C1436.8 306 1428.13 320.267 1424 337.734C1421.47 348.534 1421.47 374.134 1424 385.067C1431.2 415.334 1454.67 431.867 1483.33 426.667C1499.6 423.734 1511.87 414.534 1518.93 400.267C1522.27 393.334 1522.67 391.334 1522.67 378C1522.67 364.934 1522.27 362.534 1519.2 356C1515.07 347.067 1506.8 338.667 1498.27 334.534C1492.93 331.867 1490 331.334 1478.67 331.334C1463.33 331.334 1456.8 333.6 1447.47 342C1443.07 346 1442 346.534 1442 344.534C1442 339.067 1446.93 328.534 1452.4 322.534C1459.07 315.067 1466.67 311.734 1482.53 309.334C1488.27 308.534 1495.73 306.934 1498.93 306C1505.6 304 1515.33 298 1515.33 295.867C1515.33 294.267 1503.33 281.2 1502.13 281.467C1501.73 281.6 1499.2 282.8 1496.67 284.134ZM1480.8 352.134C1498.53 356 1506.8 376 1497.87 393.6C1490.13 408.8 1466.13 411.067 1453.73 397.867C1448.93 392.667 1447.33 388 1447.33 378.534C1447.33 362.934 1456.27 353.2 1472.93 350.8C1473.47 350.667 1476.93 351.334 1480.8 352.134Z" fill="black"/>
<path d="M759.067 304.4C754.934 314.8 742.267 346.267 730.934 374.267L710.267 425.333H723.867H737.467L739.2 420.267C740.267 417.6 743.467 409.2 746.4 401.6L751.6 388L779.067 388.267L806.4 388.667L813.334 406.667L820.134 424.667L833.867 425.067C841.467 425.2 847.334 424.933 847.067 424.267C846.934 423.6 834.134 392.133 818.8 354.267L790.934 285.333H778.8H766.667L759.067 304.4ZM787.867 339.867C792.667 352.533 796.667 363.467 796.667 364.133C796.667 364.8 788.534 365.333 778.667 365.333C768.8 365.333 760.667 365.067 760.667 364.8C760.667 364.533 764 355.467 768.134 344.533C772.267 333.6 776.267 322.667 776.934 320.267C777.6 317.733 778.4 316 778.667 316.267C778.934 316.4 783.067 327.067 787.867 339.867Z" fill="black"/>
<path d="M1190 287.867C1190.67 289.333 1198.4 301.733 1207.07 315.6C1215.73 329.333 1224.13 342.8 1225.73 345.467L1228.67 350.267L1205.87 386.8C1193.33 406.933 1182.8 423.733 1182.4 424.267C1182.13 424.933 1188 425.333 1195.6 425.333L1209.33 425.2L1223.87 400.667C1232 387.2 1239.47 374.933 1240.53 373.467C1242.53 370.8 1243.33 371.867 1259.2 398L1275.6 425.333H1288.8C1296.13 425.333 1302 425.067 1302 424.8C1302 424.533 1291.73 407.333 1279.2 386.8L1256.4 349.2L1275.87 318.133C1286.53 300.933 1295.33 286.533 1295.33 286.133C1295.33 285.733 1289.73 285.333 1283.07 285.333H1270.67L1257.2 306.933C1249.73 318.8 1243.2 328.667 1242.53 328.933C1241.87 329.2 1235.33 319.467 1228.13 307.333L1214.93 285.333H1201.73C1189.2 285.333 1188.67 285.467 1190 287.867Z" fill="black"/>
<path d="M994.667 325.734C987.2 328.267 983.867 330.133 977.867 335.6L972.667 340.267V333.467V326.667H960.667H948.667V396V465.333H960.667H972.667V439.333V413.2L979.733 418.534C1006.93 439.067 1044.93 422.4 1051.47 386.934C1053.33 377.067 1052.13 362.133 1048.67 352.8C1045.07 343.467 1035.6 332.934 1026.8 328.4C1018.67 324.267 1003.2 322.934 994.667 325.734ZM1012.4 349.467C1023.87 355.067 1030.13 369.2 1027.2 382.8C1026 388.133 1024.27 391.067 1019.47 396C1008.4 407.467 993.467 408.4 981.2 398.267C965.467 385.2 969.333 356.8 988 348.534C994.267 345.734 1005.6 346.267 1012.4 349.467Z" fill="black"/>
<path d="M1105.47 325.467C1090.4 329.067 1075.2 342 1069.87 355.733C1065.87 366 1065.6 385.733 1069.47 394.933C1078 415.6 1095.6 426.933 1119.33 427.2C1147.73 427.333 1167.87 411.6 1172.67 385.467C1177.73 357.6 1162.27 333.2 1134.8 325.867C1127.2 323.867 1113.33 323.6 1105.47 325.467ZM1132.4 349.333C1143.07 354.133 1148.67 363.2 1148.67 375.6C1148.67 392.933 1137.2 404.533 1120 404.533C1107.07 404.533 1096.4 397.333 1092.67 385.867C1090 378.133 1091.47 365.2 1095.6 358.933C1102.8 348.133 1119.87 343.6 1132.4 349.333Z" fill="black"/>
<path d="M1344.27 325.467C1328.93 329.067 1318 340 1318 351.733C1318 356.533 1318.4 357.467 1320.4 356.8C1321.6 356.533 1326.67 355.867 1331.73 355.333C1340 354.533 1340.67 354.267 1340.67 351.333C1340.67 343.867 1354.53 338.267 1365.47 341.2C1372.8 343.2 1376.8 347.867 1377.6 355.2C1378 358.533 1378.13 361.333 1377.87 361.333C1373.07 361.333 1338.4 367.2 1333.87 368.667C1315.87 374.8 1307.33 394.267 1315.73 410.667C1326 431.067 1358.13 433.333 1374 414.8L1379.33 408.667V412.8C1379.33 415.067 1379.73 418.933 1380.13 421.2L1381.07 425.333H1392.93C1404.8 425.333 1404.93 425.333 1404 422.267C1403.47 420.667 1402.67 403.467 1402.13 384C1401.33 350.533 1401.2 348.4 1398.13 342.267C1394.4 334.533 1386.53 328.8 1375.87 326C1367.47 323.867 1352.27 323.6 1344.27 325.467ZM1377.47 384.267C1375.87 395.467 1371.33 401.867 1361.73 406C1351.87 410 1339.33 407.467 1337.2 401.067C1334.8 393.6 1337.33 387.2 1343.87 383.733C1345.87 382.667 1367.33 378.667 1377.2 377.467C1377.87 377.333 1377.87 380.4 1377.47 384.267Z" fill="black"/>
<path d="M860.667 376V425.333H872.667H884.667V386.667V348H906H927.333V337.333V326.667H894H860.667V376Z" fill="black"/>
<path d="M540.533 624C557.2 646.933 540.533 676.8 505.867 686.133C486.933 691.2 440.267 688.133 395.6 678.667C328.667 664.4 284.533 658 237.733 655.733C139.467 650.8 58.9333 669.067 20.4 705.067C13.0667 711.867 3.6 726.133 2.4 732.267C1.46666 736.933 0.799995 737.067 12 729.867C61.4667 698.533 126.4 692.933 232 711.2C267.333 717.333 280.533 719.867 319.333 727.733C376.667 739.467 401.333 743.333 431.467 745.333C479.2 748.533 509.467 742.4 540.267 723.2C583.333 696.4 583.067 636.4 540 620L536.667 618.8L540.533 624Z" fill="#3AAA35"/>
</svg>
