<svg width="117" height="32" viewBox="0 0 117 32" fill="none" xmlns="http://www.w3.org/2000/svg">
<g clip-path="url(#clip0_39_62)">
<rect width="117" height="32" fill="white"/>
<path d="M25.472 14.7H27.866L33.243 28H30.564L29.234 24.523H24.104L22.774 28H20.095L25.472 14.7ZM28.379 22.281L27.163 19.089C26.992 18.633 26.821 18.158 26.669 17.645C26.517 18.158 26.346 18.633 26.175 19.089L24.959 22.281H28.379ZM34.4428 18.576H36.8368V22.091H40.7508V18.576H43.1448V28H40.7508V24.181H36.8368V28H34.4428V18.576ZM51.2094 26.499C50.8864 27.088 50.4494 27.525 49.8984 27.81C49.3474 28.114 48.7394 28.266 48.0554 28.266C47.1244 28.266 46.3644 28 45.7754 27.449C45.1864 26.917 44.8824 26.214 44.8824 25.321C44.8824 24.409 45.1864 23.706 45.7944 23.212C46.3834 22.718 47.2004 22.395 48.2454 22.262L51.0764 21.882V21.407C51.0764 20.457 50.4874 19.982 49.3094 19.982C48.7964 19.982 48.3974 20.077 48.1124 20.286C47.8084 20.495 47.6564 20.742 47.6564 21.046C47.6564 21.179 47.6564 21.255 47.6754 21.312L45.4144 21.559C45.3954 21.445 45.3764 21.274 45.3764 21.065C45.3764 20.571 45.5284 20.115 45.8514 19.697C46.1744 19.279 46.6304 18.937 47.2194 18.69C47.8084 18.443 48.5114 18.31 49.3094 18.31C50.6584 18.31 51.6844 18.595 52.4064 19.165C53.1094 19.735 53.4704 20.59 53.4704 21.73V25.663C53.4704 26.594 53.5654 27.373 53.7744 28H51.3994C51.2664 27.487 51.2094 26.993 51.2094 26.499ZM50.3734 25.663C50.8484 25.226 51.0764 24.58 51.0764 23.706V23.535L48.7964 23.858C48.2644 23.934 47.8654 24.067 47.6184 24.276C47.3524 24.485 47.2194 24.789 47.2194 25.188C47.2194 25.549 47.3524 25.834 47.5994 26.024C47.8464 26.233 48.1694 26.328 48.5684 26.328C49.3094 26.328 49.8984 26.1 50.3734 25.663ZM55.2628 28V25.891C55.4338 25.967 55.6618 26.005 55.9278 26.005C56.2318 26.005 56.4598 25.853 56.6118 25.568C56.7448 25.283 56.8398 24.732 56.8968 23.915L57.2008 18.576H64.6108V28H62.2168V20.742H59.2908L59.1198 24.01C59.0628 25.416 58.7968 26.461 58.3408 27.126C57.8658 27.791 57.1248 28.133 56.0988 28.133C55.8138 28.133 55.5478 28.095 55.2628 28ZM66.728 18.576H69.008V24.789L73.112 18.576H75.582V28H73.302V21.787L69.198 28H66.728V18.576ZM79.729 20.742H76.917V18.576H84.935V20.742H82.123V28H79.729V20.742ZM86.4516 18.576H88.7316V24.789L92.8356 18.576H95.3056V28H93.0256V21.787L88.9216 28H86.4516V18.576ZM101.711 23.022L105.777 28H102.946L99.8114 24.067V28H97.4174V18.576H99.8114V21.996L102.87 18.576H105.777L101.711 23.022ZM112.811 26.499C112.488 27.088 112.051 27.525 111.5 27.81C110.949 28.114 110.341 28.266 109.657 28.266C108.726 28.266 107.966 28 107.377 27.449C106.788 26.917 106.484 26.214 106.484 25.321C106.484 24.409 106.788 23.706 107.396 23.212C107.985 22.718 108.802 22.395 109.847 22.262L112.678 21.882V21.407C112.678 20.457 112.089 19.982 110.911 19.982C110.398 19.982 109.999 20.077 109.714 20.286C109.41 20.495 109.258 20.742 109.258 21.046C109.258 21.179 109.258 21.255 109.277 21.312L107.016 21.559C106.997 21.445 106.978 21.274 106.978 21.065C106.978 20.571 107.13 20.115 107.453 19.697C107.776 19.279 108.232 18.937 108.821 18.69C109.41 18.443 110.113 18.31 110.911 18.31C112.26 18.31 113.286 18.595 114.008 19.165C114.711 19.735 115.072 20.59 115.072 21.73V25.663C115.072 26.594 115.167 27.373 115.376 28H113.001C112.868 27.487 112.811 26.993 112.811 26.499ZM111.975 25.663C112.45 25.226 112.678 24.58 112.678 23.706V23.535L110.398 23.858C109.866 23.934 109.467 24.067 109.22 24.276C108.954 24.485 108.821 24.789 108.821 25.188C108.821 25.549 108.954 25.834 109.201 26.024C109.448 26.233 109.771 26.328 110.17 26.328C110.911 26.328 111.5 26.1 111.975 25.663Z" fill="#101828"/>
<path d="M15.6338 31.9999H2.27206C1.30663 31.9999 0.739044 31.1572 0.739044 30.4206C0.739044 29.9845 0.919948 29.5897 1.21242 29.3039L7.04361 23.6057L15.6338 31.9999Z" fill="#FF4F12"/>
<path d="M2.27205 32C1.2631 32 0.00192068 31.2114 0.00192068 29.6442V12.0907C0.00192068 9.71888 -0.121559 8.05025 1.61163 6.3566L8.11576 0L19.65 11.289L1.21242 29.304C0.919944 29.5898 0.73904 29.9846 0.73904 30.4207C0.73904 31.1573 1.30662 32 2.27205 32Z" fill="#7700FF"/>
</g>
<defs>
<clipPath id="clip0_39_62">
<rect width="117" height="32" fill="white"/>
</clipPath>
</defs>
</svg>
