<svg width="1097" height="293" viewBox="0 0 1097 293" fill="none" xmlns="http://www.w3.org/2000/svg">
<path d="M0.0413598 137.789C0.0413598 213.621 0.165439 275.33 0.289518 274.999C0.868555 273.549 4.05326 269.201 6.36941 266.798C17.4952 255.119 39.9122 246.422 71.966 241.245C77.136 240.417 97.7745 238.056 98.8085 238.222C98.9326 238.222 100.587 238.222 102.49 238.18L105.881 238.139V225.3V212.461H104.144C101.786 212.461 94.0108 210.68 90.3711 209.314C85.7802 207.574 79.5762 204.344 76.9705 202.356C70.6425 197.469 65.3898 190.553 62.2878 182.974C60.9229 179.577 58.4 170.383 58.7722 170.052C59.1445 169.638 71.0975 172.288 74.6544 173.572C89.5026 178.791 99.3875 188.358 104.682 202.522L105.84 205.628L105.881 190.304V174.939L102.49 174.442C97.3609 173.696 92.9354 172.454 87.9722 170.466C80.7756 167.526 77.6737 165.538 72.9586 160.899C68.0782 156.053 64.6453 151.084 62.4119 145.617C60.8816 141.807 58.4 132.737 58.8136 132.322C59.1445 131.991 70.5598 134.435 74.2822 135.636C78.4595 137.002 84.9943 140.274 88.4686 142.801C95.9133 148.102 101.456 155.681 104.888 165.248L105.84 167.94V152.616L105.881 137.292L100.794 136.381C92.1909 134.849 82.3473 130.956 77.0946 126.98C71.3456 122.673 65.1416 114.721 62.4119 108.177C61.0884 104.905 58.6068 95.9596 58.8136 95.0899C58.979 94.3858 69.1122 96.3324 74.1994 97.989C89.3371 102.959 99.9252 113.147 104.888 127.56L105.84 130.252V114.804L105.881 99.3971H104.599C102.49 99.3971 95.1688 97.7819 91.1983 96.4152C86.9796 94.9657 80.362 91.7767 77.4255 89.7887C72.8759 86.6826 66.5892 79.0621 63.57 73.0983C61.5847 69.081 58.2346 57.8988 58.855 57.2776C58.979 57.1534 61.3779 57.4847 64.1904 57.9817C79.1626 60.7151 90.6193 67.093 97.9813 76.8671C100.504 80.1803 103.648 86.1856 104.888 90.0786L105.84 92.9777L105.881 84.4461V75.956L103.524 72.2286C93.3904 56.2422 92.3564 41.5811 100.215 24.3937C102.531 19.2996 108.9 9.69122 109.645 10.1468C109.81 10.2711 111.382 12.5075 113.119 15.1166C120.109 25.6776 123.666 35.9072 123.666 45.7641C123.666 54.627 120.564 64.0697 114.608 73.264L112.912 75.9146V84.4461L112.954 92.9777L114.112 89.8301C119.695 74.7549 129.911 65.2708 146.041 60.1353C149.516 59.017 159.938 56.9048 160.269 57.2362C160.435 57.4018 158.656 64.0283 157.539 67.4658C154.603 76.4529 148.068 85.233 140.665 90.2443C134.543 94.4273 122.094 98.7759 114.36 99.4799L113.119 99.6042L113.036 114.928L112.954 130.252L114.318 126.69C119.861 112.236 130.118 102.752 145.669 97.8233C149.557 96.5809 159.856 94.5101 160.228 94.8828C160.641 95.297 157.126 106.603 155.554 109.958C152.576 116.295 148.233 121.969 143.27 125.903C136.694 131.121 124.948 135.76 115.311 136.878L112.912 137.168V152.45C112.912 160.858 112.995 167.733 113.078 167.733C113.16 167.733 113.615 166.49 114.153 164.916C117.131 155.971 123.997 147.066 131.814 141.889C135.495 139.487 141.45 136.671 145.917 135.263C148.978 134.31 160.104 131.991 160.352 132.281C160.724 132.612 157.002 144.54 155.595 147.522C152.369 154.48 146.29 161.893 140.83 165.538C134.047 170.093 124.121 173.614 115.518 174.608L112.912 174.898V190.47L112.954 206.042L114.194 202.729C119.612 187.985 129.911 178.335 145.586 173.158C149.598 171.833 159.98 169.721 160.228 170.176C160.435 170.466 158.822 176.554 157.581 180.53C155.016 188.482 148.73 197.386 142.278 202.232C135.826 207.119 124.369 211.509 115.807 212.378L113.119 212.668V225.176V237.725L143.105 237.766C171.891 237.766 177.392 237.601 182.81 236.482C183.844 236.275 185.871 235.902 187.36 235.613C188.849 235.364 191.454 234.701 193.15 234.163C206.137 229.939 213.954 222.07 217.428 209.769L218.586 205.628L218.793 102.793L219 0H109.521H0L0.0413598 137.789Z" fill="#3AAA35"/>
<path d="M1071 61.7996C1068.47 63.133 1060.87 65.133 1054.07 66.1996C1040.73 68.4663 1029 72.4663 1021.67 76.9996C1011.13 83.6663 1002.47 97.933 998.334 115.4C995.8 126.2 995.8 151.8 998.334 162.733C1005.53 193 1029 209.533 1057.67 204.333C1073.93 201.4 1086.2 192.2 1093.27 177.933C1096.6 171 1097 169 1097 155.666C1097 142.6 1096.6 140.2 1093.53 133.666C1089.4 124.733 1081.13 116.333 1072.6 112.2C1067.27 109.533 1064.33 109 1053 109C1037.67 109 1031.13 111.266 1021.8 119.666C1017.4 123.666 1016.33 124.2 1016.33 122.2C1016.33 116.733 1021.27 106.2 1026.73 100.2C1033.4 92.733 1041 89.3996 1056.87 86.9996C1062.6 86.1996 1070.07 84.5996 1073.27 83.6663C1079.93 81.6663 1089.67 75.6663 1089.67 73.533C1089.67 71.933 1077.67 58.8663 1076.47 59.133C1076.07 59.2663 1073.53 60.4663 1071 61.7996ZM1055.13 129.8C1072.87 133.666 1081.13 153.666 1072.2 171.266C1064.47 186.466 1040.47 188.733 1028.07 175.533C1023.27 170.333 1021.67 165.666 1021.67 156.2C1021.67 140.6 1030.6 130.866 1047.27 128.466C1047.8 128.333 1051.27 129 1055.13 129.8Z" fill="black"/>
<path d="M333.401 82.0667C329.267 92.4667 316.601 123.933 305.267 151.933L284.601 203H298.201H311.801L313.534 197.933C314.601 195.267 317.801 186.867 320.734 179.267L325.934 165.667L353.401 165.933L380.734 166.333L387.667 184.333L394.467 202.333L408.201 202.733C415.801 202.867 421.667 202.6 421.401 201.933C421.267 201.267 408.467 169.8 393.134 131.933L365.267 63H353.134H341.001L333.401 82.0667ZM362.201 117.533C367.001 130.2 371.001 141.133 371.001 141.8C371.001 142.467 362.867 143 353.001 143C343.134 143 335.001 142.733 335.001 142.467C335.001 142.2 338.334 133.133 342.467 122.2C346.601 111.267 350.601 100.333 351.267 97.9333C351.934 95.4 352.734 93.6667 353.001 93.9333C353.267 94.0667 357.401 104.733 362.201 117.533Z" fill="black"/>
<path d="M764.334 65.5333C765.001 67 772.734 79.4 781.401 93.2667C790.067 107 798.467 120.467 800.067 123.133L803.001 127.933L780.201 164.467C767.667 184.6 757.134 201.4 756.734 201.933C756.467 202.6 762.334 203 769.934 203L783.667 202.867L798.201 178.333C806.334 164.867 813.801 152.6 814.867 151.133C816.867 148.467 817.667 149.533 833.534 175.667L849.934 203H863.134C870.467 203 876.334 202.733 876.334 202.467C876.334 202.2 866.067 185 853.534 164.467L830.734 126.867L850.201 95.8C860.867 78.6 869.667 64.2 869.667 63.8C869.667 63.4 864.067 63 857.401 63H845.001L831.534 84.6C824.067 96.4667 817.534 106.333 816.867 106.6C816.201 106.867 809.667 97.1333 802.467 85L789.267 63H776.067C763.534 63 763.001 63.1333 764.334 65.5333Z" fill="black"/>
<path d="M569 103.4C561.534 105.933 558.2 107.8 552.2 113.267L547 117.933V111.133V104.333H535H523V173.667V243H535H547V217V190.867L554.067 196.2C581.267 216.733 619.267 200.067 625.8 164.6C627.667 154.733 626.467 139.8 623 130.467C619.4 121.133 609.934 110.6 601.134 106.067C593 101.933 577.534 100.6 569 103.4ZM586.734 127.133C598.2 132.733 604.467 146.867 601.534 160.467C600.334 165.8 598.6 168.733 593.8 173.667C582.734 185.133 567.8 186.067 555.534 175.933C539.8 162.867 543.667 134.467 562.334 126.2C568.6 123.4 579.934 123.933 586.734 127.133Z" fill="black"/>
<path d="M679.8 103.133C664.734 106.733 649.534 119.666 644.2 133.4C640.2 143.666 639.934 163.4 643.8 172.6C652.334 193.266 669.934 204.6 693.667 204.866C722.067 205 742.2 189.266 747 163.133C752.067 135.266 736.6 110.866 709.134 103.533C701.534 101.533 687.667 101.266 679.8 103.133ZM706.734 127C717.4 131.8 723 140.866 723 153.266C723 170.6 711.534 182.2 694.334 182.2C681.4 182.2 670.734 175 667 163.533C664.334 155.8 665.8 142.866 669.934 136.6C677.134 125.8 694.2 121.266 706.734 127Z" fill="black"/>
<path d="M918.6 103.133C903.267 106.733 892.334 117.666 892.334 129.4C892.334 134.2 892.734 135.133 894.734 134.466C895.934 134.2 901 133.533 906.067 133C914.334 132.2 915 131.933 915 129C915 121.533 928.867 115.933 939.8 118.866C947.134 120.866 951.134 125.533 951.934 132.866C952.334 136.2 952.467 139 952.2 139C947.4 139 912.734 144.866 908.2 146.333C890.2 152.466 881.667 171.933 890.067 188.333C900.334 208.733 932.467 211 948.334 192.466L953.667 186.333V190.466C953.667 192.733 954.067 196.6 954.467 198.866L955.4 203H967.267C979.134 203 979.267 203 978.334 199.933C977.8 198.333 977 181.133 976.467 161.666C975.667 128.2 975.534 126.066 972.467 119.933C968.734 112.2 960.867 106.466 950.2 103.666C941.8 101.533 926.6 101.266 918.6 103.133ZM951.8 161.933C950.2 173.133 945.667 179.533 936.067 183.666C926.2 187.666 913.667 185.133 911.534 178.733C909.134 171.266 911.667 164.866 918.2 161.4C920.2 160.333 941.667 156.333 951.534 155.133C952.2 155 952.2 158.066 951.8 161.933Z" fill="black"/>
<path d="M435 153.667V203H447H459V164.333V125.667H480.334H501.667V115V104.333H468.334H435V153.667Z" fill="black"/>
<path d="M211.327 244.603C217.001 251.226 213.356 262.293 204.038 266.86C198.322 269.616 196.831 269.863 185.483 269.863C177.945 269.822 174.342 269.657 171.402 269.163C169.248 268.752 166.059 268.258 164.361 268.011C162.663 267.765 158.563 266.983 155.25 266.325C139.47 263.116 124.685 260.483 116.112 259.372C87.1618 255.587 59.993 256.328 39.2436 261.47C20.9377 265.996 9.0928 272.619 3.17032 281.67C1.3066 284.468 -0.350033 288.047 0.0641261 288.417C0.105542 288.458 1.84501 287.471 3.87439 286.237C14.187 279.983 24.3339 276.61 36.6344 275.334C39.3264 275.088 45.953 274.882 51.2956 274.882C64.3002 274.964 74.6128 276.034 92.5045 279.16C97.7643 280.066 104.101 281.176 106.586 281.629C109.112 282.081 111.432 282.534 111.763 282.657C112.591 282.945 137.606 287.882 143.653 288.952C152.723 290.556 158.397 291.338 169.124 292.449C175.668 293.148 179.809 293.189 183.868 292.531C198.902 290.104 200.766 289.528 211.327 283.727C214.888 281.793 219.03 277.35 221.184 273.154C223.337 268.958 224 266.366 224 262.252C224 258.344 223.337 255.546 221.598 252.255C219.486 248.223 215.013 244.438 210.788 243.122C209.836 242.834 209.877 242.957 211.327 244.603Z" fill="#3AAA35"/>
</svg>
